<?xml version="1.0" encoding="utf-8"?>
<!-- Generator: Adobe Illustrator 18.0.0, SVG Export Plug-In . SVG Version: 6.00 Build 0)  -->
<!DOCTYPE svg PUBLIC "-//W3C//DTD SVG 1.1//EN" "http://www.w3.org/Graphics/SVG/1.1/DTD/svg11.dtd">
<svg version="1.1" id="Calque_1" xmlns="http://www.w3.org/2000/svg" xmlns:xlink="http://www.w3.org/1999/xlink" x="0px" y="0px"
	 viewBox="0 0 6.627 4.601" enable-background="new 0 0 6.627 4.601" xml:space="preserve">
<path fill="#FFFFFF" d="M3.313,0.801c1.292,0,2.162,1.508,2.162,1.508s-0.87,1.502-2.162,1.502c-1.292,0-2.162-1.502-2.162-1.502
	S2.022,0.801,3.313,0.801z M3.313,3.368c0.582,0,1.059-0.477,1.059-1.059c0-0.582-0.477-1.059-1.059-1.059S2.254,1.727,2.254,2.309
	C2.254,2.891,2.731,3.368,3.313,3.368z M3.79,2.309c0,0.261-0.222,0.471-0.477,0.471c-0.26,0-0.471-0.211-0.471-0.471
	c0-0.255,0.211-0.477,0.471-0.477C3.568,1.833,3.79,2.054,3.79,2.309z"/>
</svg>
