<?xml version="1.0" encoding="utf-8"?>
<!-- Generator: Adobe Illustrator 18.0.0, SVG Export Plug-In . SVG Version: 6.00 Build 0)  -->
<!DOCTYPE svg PUBLIC "-//W3C//DTD SVG 1.1//EN" "http://www.w3.org/Graphics/SVG/1.1/DTD/svg11.dtd">
<svg version="1.1" id="Calque_1" xmlns="http://www.w3.org/2000/svg" xmlns:xlink="http://www.w3.org/1999/xlink" x="0px" y="0px"
	 viewBox="0 0 227 86.3" enable-background="new 0 0 227 86.3" xml:space="preserve">
<path fill="none" stroke="#FFFFFF" stroke-width="5" stroke-miterlimit="10" d="M42.4,2.7c-22,0-39.8,17.8-39.8,39.8
	c0,8.3,2.6,16.1,6.9,22.5L5.3,82.3l17.4-5.2c5.8,3.3,12.5,5.2,19.6,5.2c22,0,39.8-17.8,39.8-39.8S64.4,2.7,42.4,2.7z"/>
<g>
	<g>
		<path fill="#FFFFFF" d="M29.1,55.7h-4v-6.2h-0.1c-0.9,1.4-2.8,2-4.5,2c-2.6,0-6.1-1.7-6.1-6.8c0-3.6,2.1-6.9,6.5-6.9
			c1.8,0,3.5,0.6,4.4,2h0.1v-1.7h3.8V55.7z M21.9,48.8c2.6,0,3.5-2,3.5-4.1c0-2-0.9-4.2-3.4-4.2c-2.6,0-3.5,2.1-3.5,4.2
			C18.4,46.7,19.3,48.8,21.9,48.8z"/>
		<path fill="#FFFFFF" d="M45.6,51.2h-3.8v-1.8h-0.1c-1,1.5-2.7,2.2-4.4,2.2c-4.2,0-5.3-2.1-5.3-5.4v-8h4v7.4c0,2.1,0.7,3.2,2.5,3.2
			c2.1,0,3.1-1.1,3.1-3.7v-6.8h4V51.2z"/>
		<path fill="#FFFFFF" d="M52.7,36.1h-4v-2.9h4V36.1z M48.7,38.1h4v13h-4V38.1z"/>
		<path fill="#FFFFFF" d="M54.9,48.5l7.5-7.6h-6.9v-2.7h12.1v2.7l-7.5,7.6h8v2.7H54.9V48.5z"/>
	</g>
</g>
<g>
	<g>
		<path fill-rule="evenodd" clip-rule="evenodd" fill="#FFFFFF" d="M227,27c-0.6,3.3-1.3,6.4-1.9,9.6c-2.2,11.1-4.5,22.3-6.7,33.4
			c-0.9,4.4-1.8,8.7-2.6,13.1c-0.1,0.6-0.4,0.8-1,0.8c-11.2,0-22.4,0-33.6,0c-0.8,0-0.9-0.5-1-1c-1.7-8.8-3.5-17.5-5.2-26.3
			c-1.9-9.5-3.8-19-5.7-28.5c-0.1-0.3-0.1-0.7-0.2-1.1C188.4,27,207.6,27,227,27z M175.2,32.1c0,0.4,0.1,0.7,0.1,1
			c3,15,6,29.9,9,44.9c0.1,0.7,0.4,0.9,1.1,0.9c8.4,0,16.8,0,25.2,0c0.7,0,1-0.2,1.1-0.9c2.7-13.4,5.3-26.7,8-40.1
			c0.4-1.9,0.7-3.7,1.1-5.7C205.6,32.1,190.5,32.1,175.2,32.1z"/>
		<path fill-rule="evenodd" clip-rule="evenodd" fill="#FFFFFF" d="M217.5,18.9c1.1-2.1,2.1-4.2,0.1-6.3c-0.9-0.9-2-1.4-3.2-1.2
			c-1.1,0.2-2.2,0.7-3.4,1.2c-0.3-0.6-0.7-1.3-1-2c-2.3-4.6-7.6-5.8-11.6-2.6c-0.9,0.7-1.4,0.6-2.3,0c-6.3-4.2-14.7-0.6-16,6.9
			c-0.2,1-0.1,2-0.1,3c0,0.6-0.1,0.9-0.7,1c-2.6,0.7-4,2.4-4.5,5c0,0.2-0.4,0.5-0.6,0.5c-1.5,0-2.9,0-4.6,0c0.1-0.8,0.1-1.6,0.3-2.3
			c0.7-2.6,2.1-4.7,4.3-6.3c0.3-0.2,0.6-0.7,0.7-1.1c1.2-7.1,6-12.1,13-13.3c2.9-0.5,5.7-0.2,8.4,1c0.6,0.3,1,0.2,1.6,0
			c5.6-2.4,11.3-1.1,15.4,3.5c0.3,0.3,0.9,0.5,1.4,0.5c4.5,0.1,8.1,2.8,9.1,7.1c0.2,1,0.2,2.2,0.1,3.2c0,0.6,0.1,1,0.4,1.5
			c1.5,1.8,2.2,3.8,2.3,6.3c-1.6,0-3.1,0-4.7,0c-0.2,0-0.4-0.2-0.5-0.4c-0.2-2.3-1.7-3.6-3.5-4.8C217.8,19.1,217.7,19,217.5,18.9z"
			/>
		<path fill-rule="evenodd" clip-rule="evenodd" fill="#FFFFFF" d="M190.3,20c-1.6,0.6-3.1,1.2-4.7,1.7c-1.5-3.2,0-7.4,3.2-9.2
			c3.4-1.9,7.9-1,10.1,2.1c-1.3,1-2.6,2-4,3c-1-1-2.2-1.3-3.5-0.6C190.3,17.6,190.1,18.7,190.3,20z"/>
		<path fill-rule="evenodd" clip-rule="evenodd" fill="#FFFFFF" d="M210.6,35.8c1,1,2.1,2.2,3.2,3.3c-8.4,8.4-16.9,16.9-25.4,25.4
			c-1-1-2.1-2.2-3.2-3.3C193.6,52.8,202.1,44.3,210.6,35.8z"/>
		<path fill-rule="evenodd" clip-rule="evenodd" fill="#FFFFFF" d="M193.2,74.8c-1-1-2.2-2.2-3.3-3.3c6.4-6.4,12.8-12.8,19.2-19.2
			c1.1,1.1,2.2,2.2,3.3,3.3C206.1,62,199.7,68.4,193.2,74.8z"/>
		<path fill-rule="evenodd" clip-rule="evenodd" fill="#FFFFFF" d="M185.8,51.6c-1.1-1.1-2.3-2.3-3.4-3.4c4.1-4.1,8.3-8.3,12.5-12.5
			c1.1,1.1,2.3,2.3,3.4,3.4C194.1,43.3,189.9,47.4,185.8,51.6z"/>
	</g>
</g>
<g>
	<g>
		<path fill="#FFFFFF" d="M132.2,46.8h-13.6v-2.6h13.6V46.8z M132.2,52.1h-13.6v-2.6h13.6V52.1z"/>
	</g>
</g>
</svg>
