<?xml version="1.0" encoding="utf-8"?>
<!-- Generator: Adobe Illustrator 18.0.0, SVG Export Plug-In . SVG Version: 6.00 Build 0)  -->
<!DOCTYPE svg PUBLIC "-//W3C//DTD SVG 1.1//EN" "http://www.w3.org/Graphics/SVG/1.1/DTD/svg11.dtd">
<svg version="1.1" id="Calque_1" xmlns="http://www.w3.org/2000/svg" xmlns:xlink="http://www.w3.org/1999/xlink" x="0px" y="0px"
	 viewBox="0 0 5 5" enable-background="new 0 0 5 5" xml:space="preserve">
<g>
	<g>
		<path fill-rule="evenodd" clip-rule="evenodd" fill="#FFFFFF" d="M4.2,1.577C4.162,1.773,4.125,1.962,4.087,2.152
			C3.953,2.819,3.819,3.486,3.686,4.153C3.634,4.414,3.58,4.675,3.53,4.937c-0.007,0.039-0.023,0.049-0.06,0.049
			C2.8,4.985,2.13,4.985,1.46,4.986c-0.051,0-0.055-0.028-0.061-0.062C1.294,4.4,1.189,3.875,1.084,3.351
			C0.971,2.782,0.856,2.212,0.743,1.643c-0.004-0.02-0.006-0.041-0.01-0.066C1.888,1.577,3.04,1.577,4.2,1.577z M1.101,1.883
			c0.003,0.023,0.004,0.04,0.007,0.057c0.179,0.896,0.359,1.793,0.537,2.689C1.654,4.67,1.671,4.68,1.711,4.68
			c0.503-0.001,1.006-0.001,1.508,0c0.044,0,0.058-0.014,0.067-0.056c0.159-0.8,0.319-1.601,0.48-2.401
			c0.022-0.112,0.044-0.224,0.067-0.34C2.919,1.883,2.014,1.883,1.101,1.883z"/>
		<path fill-rule="evenodd" clip-rule="evenodd" fill="#FFFFFF" d="M3.633,1.088C3.701,0.961,3.758,0.835,3.639,0.71
			c-0.052-0.055-0.12-0.083-0.193-0.07C3.377,0.653,3.312,0.685,3.24,0.71c-0.019-0.037-0.04-0.078-0.06-0.118
			c-0.138-0.276-0.457-0.35-0.697-0.158C2.43,0.477,2.398,0.472,2.346,0.437c-0.38-0.252-0.879-0.038-0.959,0.411
			c-0.01,0.058-0.009,0.118-0.008,0.178c0,0.033-0.007,0.052-0.043,0.061C1.181,1.125,1.096,1.228,1.068,1.383
			C1.066,1.396,1.045,1.414,1.033,1.414C0.945,1.417,0.857,1.415,0.758,1.415c0.007-0.05,0.008-0.096,0.019-0.139
			c0.04-0.156,0.124-0.283,0.255-0.379c0.02-0.014,0.038-0.043,0.042-0.067c0.07-0.426,0.362-0.727,0.781-0.798
			c0.171-0.029,0.341-0.011,0.501,0.061C2.39,0.109,2.418,0.107,2.452,0.093C2.785-0.051,3.131,0.029,3.373,0.3
			C3.39,0.319,3.428,0.33,3.457,0.33c0.269,0.005,0.485,0.171,0.543,0.427c0.014,0.062,0.012,0.129,0.009,0.194
			c-0.002,0.035,0.003,0.06,0.026,0.088c0.089,0.107,0.133,0.23,0.135,0.377c-0.096,0-0.187,0.001-0.279-0.001
			c-0.01,0-0.027-0.013-0.027-0.021C3.851,1.256,3.762,1.176,3.655,1.107C3.649,1.103,3.644,1.097,3.633,1.088z"/>
		<path fill-rule="evenodd" clip-rule="evenodd" fill="#FFFFFF" d="M2.005,1.155C1.908,1.19,1.817,1.224,1.726,1.257
			C1.638,1.063,1.726,0.814,1.92,0.704C2.12,0.59,2.39,0.643,2.523,0.828c-0.079,0.059-0.158,0.119-0.239,0.18
			C2.22,0.947,2.15,0.928,2.073,0.97C2.002,1.009,1.991,1.076,2.005,1.155z"/>
		<path fill-rule="evenodd" clip-rule="evenodd" fill="#FFFFFF" d="M3.218,2.101c0.06,0.061,0.128,0.131,0.191,0.195
			C2.903,2.802,2.394,3.311,1.886,3.818c-0.06-0.062-0.128-0.131-0.191-0.195C2.199,3.12,2.708,2.61,3.218,2.101z"/>
		<path fill-rule="evenodd" clip-rule="evenodd" fill="#FFFFFF" d="M2.18,4.44C2.117,4.378,2.049,4.309,1.983,4.243
			C2.366,3.86,2.751,3.475,3.134,3.092C3.199,3.157,3.267,3.227,3.33,3.29C2.949,3.671,2.565,4.055,2.18,4.44z"/>
		<path fill-rule="evenodd" clip-rule="evenodd" fill="#FFFFFF" d="M1.734,3.049C1.667,2.982,1.597,2.911,1.531,2.845
			C1.78,2.596,2.03,2.346,2.278,2.098c0.067,0.067,0.137,0.137,0.203,0.203C2.233,2.549,1.983,2.8,1.734,3.049z"/>
	</g>
</g>
</svg>
