<?xml version="1.0" encoding="utf-8"?>
<!-- Generator: Adobe Illustrator 18.0.0, SVG Export Plug-In . SVG Version: 6.00 Build 0)  -->
<!DOCTYPE svg PUBLIC "-//W3C//DTD SVG 1.1//EN" "http://www.w3.org/Graphics/SVG/1.1/DTD/svg11.dtd">
<svg version="1.1" id="Calque_1" xmlns="http://www.w3.org/2000/svg" xmlns:xlink="http://www.w3.org/1999/xlink" x="0px" y="0px"
	 viewBox="0 0 12.984 10.063" enable-background="new 0 0 12.984 10.063" xml:space="preserve">
<g>
	<g>
		<path fill-rule="evenodd" clip-rule="evenodd" fill="#FFFFFF" d="M6.665,5.444c-0.002,0.01-0.004,0.019-0.006,0.029
			C6.653,5.506,6.646,5.54,6.639,5.573C6.637,5.586,6.634,5.599,6.631,5.612c0,0.002-0.001,0.002-0.003,0.002
			c-0.034,0-0.067,0-0.101,0c-0.003,0-0.003-0.001-0.003-0.003C6.519,5.585,6.514,5.559,6.509,5.533
			C6.503,5.504,6.497,5.476,6.491,5.447c0-0.001,0-0.002-0.001-0.003C6.549,5.444,6.607,5.444,6.665,5.444z M6.509,5.459
			c0,0.001,0,0.002,0,0.003c0.009,0.045,0.018,0.09,0.027,0.135C6.537,5.599,6.538,5.6,6.54,5.6c0.025,0,0.051,0,0.076,0
			c0.002,0,0.003-0.001,0.003-0.003c0.008-0.04,0.016-0.08,0.024-0.121C6.644,5.47,6.646,5.465,6.647,5.459
			C6.601,5.459,6.555,5.459,6.509,5.459z"/>
		<path fill-rule="evenodd" clip-rule="evenodd" fill="#FFFFFF" d="M6.637,5.419c0.003-0.006,0.006-0.013,0-0.019
			c-0.003-0.003-0.006-0.004-0.01-0.003C6.624,5.397,6.621,5.399,6.617,5.4C6.616,5.398,6.615,5.396,6.614,5.394
			C6.607,5.38,6.591,5.376,6.579,5.386c-0.003,0.002-0.004,0.002-0.007,0C6.553,5.374,6.528,5.384,6.524,5.407
			c-0.001,0.003,0,0.006,0,0.009c0,0.002,0,0.003-0.002,0.003C6.513,5.421,6.509,5.426,6.508,5.434c0,0.001-0.001,0.002-0.002,0.002
			c-0.004,0-0.009,0-0.014,0c0-0.003,0-0.005,0.001-0.007c0.002-0.008,0.006-0.014,0.013-0.019c0.001-0.001,0.002-0.002,0.002-0.003
			c0.004-0.021,0.018-0.037,0.039-0.04c0.009-0.001,0.017-0.001,0.025,0.003c0.002,0.001,0.003,0.001,0.005,0
			c0.017-0.007,0.034-0.003,0.046,0.01C6.624,5.38,6.626,5.381,6.628,5.381c0.014,0,0.024,0.009,0.027,0.021
			c0.001,0.003,0.001,0.007,0,0.01c0,0.002,0,0.003,0.001,0.004c0.004,0.005,0.007,0.012,0.007,0.019c-0.005,0-0.009,0-0.014,0
			c0,0-0.001-0.001-0.001-0.001C6.648,5.427,6.643,5.423,6.638,5.42C6.637,5.42,6.637,5.419,6.637,5.419z"/>
		<path fill-rule="evenodd" clip-rule="evenodd" fill="#FFFFFF" d="M6.555,5.422C6.55,5.424,6.545,5.426,6.541,5.428
			c-0.004-0.01,0-0.022,0.01-0.028c0.01-0.006,0.024-0.003,0.03,0.006C6.577,5.409,6.573,5.412,6.569,5.415
			C6.566,5.412,6.562,5.411,6.558,5.413C6.555,5.415,6.554,5.418,6.555,5.422z"/>
		<path fill-rule="evenodd" clip-rule="evenodd" fill="#FFFFFF" d="M6.616,5.47c0.003,0.003,0.006,0.007,0.01,0.01
			C6.6,5.505,6.574,5.531,6.549,5.556c-0.003-0.003-0.006-0.007-0.01-0.01C6.565,5.521,6.59,5.496,6.616,5.47z"/>
		<path fill-rule="evenodd" clip-rule="evenodd" fill="#FFFFFF" d="M6.564,5.588c-0.003-0.003-0.007-0.007-0.01-0.01
			C6.573,5.558,6.592,5.539,6.612,5.52c0.003,0.003,0.007,0.007,0.01,0.01C6.602,5.549,6.583,5.568,6.564,5.588z"/>
		<path fill-rule="evenodd" clip-rule="evenodd" fill="#FFFFFF" d="M6.541,5.518c-0.003-0.003-0.007-0.007-0.01-0.01
			C6.543,5.495,6.556,5.482,6.569,5.47c0.003,0.003,0.007,0.007,0.01,0.01C6.566,5.492,6.554,5.505,6.541,5.518z"/>
	</g>
</g>
</svg>
