<?xml version="1.0" encoding="utf-8"?>
<!-- Generator: Adobe Illustrator 18.0.0, SVG Export Plug-In . SVG Version: 6.00 Build 0)  -->
<!DOCTYPE svg PUBLIC "-//W3C//DTD SVG 1.1//EN" "http://www.w3.org/Graphics/SVG/1.1/DTD/svg11.dtd">
<svg version="1.1" id="Calque_1" xmlns="http://www.w3.org/2000/svg" xmlns:xlink="http://www.w3.org/1999/xlink" x="0px" y="0px"
	 viewBox="0 0 4.754 6.866" enable-background="new 0 0 4.754 6.866" xml:space="preserve">
<g>
	<g>
		<path fill-rule="evenodd" clip-rule="evenodd" fill="#FFFFFF" d="M4.796,2.153C4.743,2.424,4.691,2.686,4.639,2.948
			C4.454,3.871,4.269,4.793,4.085,5.716C4.012,6.077,3.938,6.438,3.869,6.8c-0.01,0.054-0.032,0.068-0.083,0.068
			C2.859,6.866,1.933,6.866,1.006,6.868c-0.07,0-0.075-0.039-0.085-0.086c-0.145-0.725-0.289-1.45-0.435-2.175
			C0.329,3.819,0.171,3.032,0.014,2.244C0.009,2.216,0.005,2.187,0,2.153C1.598,2.153,3.191,2.153,4.796,2.153z M0.51,2.576
			c0.004,0.032,0.005,0.055,0.01,0.079c0.248,1.24,0.496,2.479,0.743,3.719c0.011,0.056,0.034,0.071,0.09,0.071
			c0.695-0.002,1.391-0.002,2.086,0c0.061,0,0.08-0.02,0.092-0.078c0.22-1.107,0.442-2.214,0.663-3.321
			c0.031-0.155,0.061-0.31,0.092-0.47C3.024,2.576,1.772,2.576,0.51,2.576z"/>
		<path fill-rule="evenodd" clip-rule="evenodd" fill="#FFFFFF" d="M4.012,1.477c0.094-0.176,0.173-0.349,0.007-0.522
			C3.947,0.879,3.853,0.839,3.752,0.858C3.658,0.876,3.568,0.919,3.468,0.954C3.442,0.903,3.414,0.847,3.386,0.791
			c-0.19-0.381-0.631-0.484-0.964-0.218C2.348,0.632,2.304,0.624,2.232,0.576C1.706,0.228,1.016,0.524,0.905,1.145
			c-0.014,0.08-0.012,0.164-0.011,0.246c0,0.046-0.01,0.072-0.06,0.084C0.62,1.529,0.503,1.67,0.464,1.885
			C0.461,1.902,0.433,1.927,0.415,1.928C0.294,1.932,0.172,1.93,0.035,1.93c0.009-0.07,0.011-0.133,0.026-0.192
			c0.055-0.216,0.171-0.391,0.352-0.524c0.027-0.02,0.052-0.059,0.058-0.092c0.097-0.589,0.5-1.006,1.08-1.103
			c0.237-0.04,0.471-0.015,0.694,0.084C2.293,0.123,2.331,0.121,2.379,0.1c0.46-0.199,0.938-0.088,1.273,0.286
			c0.024,0.027,0.077,0.042,0.117,0.042C4.141,0.436,4.44,0.665,4.52,1.019c0.02,0.086,0.016,0.179,0.012,0.268
			C4.529,1.336,4.536,1.37,4.568,1.408C4.69,1.556,4.752,1.726,4.754,1.93c-0.133,0-0.259,0.001-0.386-0.001
			c-0.013,0-0.037-0.018-0.038-0.029C4.313,1.709,4.19,1.598,4.043,1.503C4.034,1.498,4.027,1.489,4.012,1.477z"/>
		<path fill-rule="evenodd" clip-rule="evenodd" fill="#FFFFFF" d="M1.76,1.569C1.626,1.618,1.5,1.665,1.374,1.711
			C1.252,1.443,1.374,1.098,1.642,0.945c0.278-0.158,0.65-0.084,0.834,0.172C2.367,1.2,2.257,1.282,2.145,1.366
			C2.058,1.281,1.96,1.255,1.854,1.314C1.756,1.368,1.74,1.46,1.76,1.569z"/>
		<path fill-rule="evenodd" clip-rule="evenodd" fill="#FFFFFF" d="M3.437,2.877c0.083,0.085,0.177,0.181,0.264,0.27
			C3.002,3.847,2.297,4.551,1.595,5.253c-0.083-0.085-0.178-0.181-0.264-0.27C2.028,4.286,2.733,3.582,3.437,2.877z"/>
		<path fill-rule="evenodd" clip-rule="evenodd" fill="#FFFFFF" d="M2.002,6.113C1.915,6.026,1.82,5.931,1.73,5.84
			c0.53-0.53,1.062-1.062,1.592-1.592c0.09,0.09,0.184,0.186,0.271,0.273C3.066,5.049,2.534,5.58,2.002,6.113z"/>
		<path fill-rule="evenodd" clip-rule="evenodd" fill="#FFFFFF" d="M1.384,4.188c-0.092-0.093-0.188-0.19-0.28-0.282
			c0.344-0.343,0.69-0.69,1.033-1.033c0.093,0.093,0.189,0.19,0.281,0.281C2.075,3.498,1.729,3.844,1.384,4.188z"/>
	</g>
</g>
</svg>
